<?xml version="1.0" encoding="UTF-8"?>
<svg xmlns="http://www.w3.org/2000/svg" xmlns:xlink="http://www.w3.org/1999/xlink" width="px" height="24px" viewBox="0 0 24 24" version="1.1">
<g id="surface1">
<path style=" stroke:none;fill-rule:nonzero;fill:rgb(0%,0%,0%);fill-opacity:1;" d="M 12 0.75 C 5.785156 0.75 0.75 5.785156 0.75 12 C 0.75 18.214844 5.785156 23.25 12 23.25 C 18.214844 23.25 23.25 18.214844 23.25 12 C 23.25 5.785156 18.214844 0.75 12 0.75 Z M 12 22.3125 C 6.3125 22.3125 1.6875 17.6875 1.6875 12 C 1.6875 6.3125 6.3125 1.6875 12 1.6875 C 17.6875 1.6875 22.3125 6.3125 22.3125 12 C 22.3125 17.6875 17.6875 22.3125 12 22.3125 Z M 12 22.3125 "/>
<path style=" stroke:none;fill-rule:nonzero;fill:rgb(0%,0%,0%);fill-opacity:1;" d="M 12 15.6875 C 10.296875 15.6875 8.96875 16.835938 8.3125 18.121094 C 8.136719 18.464844 8.371094 18.839844 8.628906 18.625 C 10.789062 16.835938 13.199219 16.824219 15.371094 18.625 C 15.628906 18.839844 15.863281 18.464844 15.6875 18.121094 C 15.03125 16.835938 13.703125 15.6875 12 15.6875 "/>
<path style=" stroke:none;fill-rule:nonzero;fill:rgb(0%,0%,0%);fill-opacity:1;" d="M 9.300781 11.511719 C 9.3125 11.484375 9.316406 11.453125 9.316406 11.417969 C 9.730469 11.730469 10.128906 12.082031 10.539062 12.492188 C 10.460938 11.785156 10.117188 11.125 9.652344 10.574219 C 9.183594 10.027344 8.582031 9.585938 7.929688 9.285156 C 7.273438 8.980469 6.550781 8.8125 5.832031 8.804688 C 5.113281 8.800781 4.40625 8.960938 3.8125 9.351562 C 4.386719 9.40625 4.894531 9.484375 5.390625 9.601562 C 5.371094 9.617188 5.351562 9.640625 5.339844 9.664062 C 4.828125 10.757812 5.300781 12.058594 6.394531 12.570312 C 7.488281 13.078125 8.789062 12.605469 9.300781 11.511719 "/>
<path style=" stroke:none;fill-rule:nonzero;fill:rgb(0%,0%,0%);fill-opacity:1;" d="M 18.167969 8.804688 C 17.449219 8.8125 16.726562 8.980469 16.070312 9.285156 C 15.417969 9.585938 14.816406 10.027344 14.347656 10.574219 C 13.882812 11.121094 13.539062 11.785156 13.460938 12.492188 C 13.871094 12.082031 14.269531 11.730469 14.683594 11.417969 C 14.683594 11.453125 14.6875 11.484375 14.699219 11.511719 C 15.210938 12.605469 16.511719 13.078125 17.605469 12.570312 C 18.695312 12.058594 19.171875 10.757812 18.660156 9.664062 C 18.648438 9.640625 18.628906 9.617188 18.609375 9.601562 C 19.105469 9.484375 19.613281 9.40625 20.1875 9.351562 C 19.59375 8.960938 18.886719 8.800781 18.167969 8.804688 "/>
</g>
</svg>
