<?xml version="1.0" encoding="UTF-8"?>
<svg xmlns="http://www.w3.org/2000/svg" xmlns:xlink="http://www.w3.org/1999/xlink" width="28px" height="px" viewBox="0 0 28 28" version="1.1">
<g id="surface1">
<path style="fill:none;stroke-width:2;stroke-linecap:round;stroke-linejoin:round;stroke:rgb(0%,0%,0%);stroke-opacity:1;stroke-miterlimit:10;" d="M 59.002232 36 C 58.751116 35.246652 58.289062 33.90067 57.003348 32.996652 C 55.436384 31.921875 53.367187 31.992187 52.995536 32.002232 C 52.242187 32.032366 51.820312 32.162946 50.996652 32.002232 C 50.424107 31.881696 49.469866 31.700893 48.997768 30.997768 C 48.595982 30.405134 48.847098 29.922991 48.997768 28.004464 C 49.118304 26.487723 49.168527 25.734375 48.997768 25.001116 C 48.626116 23.424107 47.511161 22.439732 46.998884 21.997768 C 45.954241 21.083705 44.618304 20.440848 41.996652 19.998884 C 40.178571 19.6875 37.245536 19.396205 32.996652 19.998884 C 30.847098 20.300223 27.542411 20.872768 25.001116 21.716518 C 23.233259 22.299107 21.264509 23.132812 19.004464 24.719866 C 18.984375 24.729911 18.964286 24.739955 18.954241 24.75 C 15.508929 26.989955 13.560268 30.947545 13.731027 35.055804 C 14.635045 57.133929 54.5625 59.90625 59.002232 41.002232 C 59.092634 40.399554 59.785714 38.350446 59.002232 36 Z M 38.209821 30.123884 C 36.683036 30.123884 35.447545 28.878348 35.447545 27.361607 C 35.447545 25.834821 36.683036 24.59933 38.209821 24.59933 L 40.921875 24.59933 C 42.438616 24.59933 43.684152 25.834821 43.684152 27.361607 C 43.684152 28.125 43.372768 28.808036 42.870536 29.310268 C 42.368304 29.8125 41.675223 30.123884 40.921875 30.123884 Z M 38.209821 30.123884 " transform="matrix(0.388889,0,0,0.388889,0,0)"/>
<path style="fill:none;stroke-width:2;stroke-linecap:butt;stroke-linejoin:miter;stroke:rgb(0%,0%,0%);stroke-opacity:1;stroke-miterlimit:10;" d="M 23.002232 32.996652 C 23.002232 34.654018 21.65625 36 19.998884 36 C 18.341518 36 16.995536 34.654018 16.995536 32.996652 C 16.995536 31.339286 18.341518 30.003348 19.998884 30.003348 C 21.65625 30.003348 23.002232 31.339286 23.002232 32.996652 Z M 23.002232 32.996652 " transform="matrix(0.388889,0,0,0.388889,0,0)"/>
<path style="fill:none;stroke-width:2;stroke-linecap:round;stroke-linejoin:round;stroke:rgb(0%,0%,0%);stroke-opacity:1;stroke-miterlimit:10;" d="M 28.004464 41.996652 C 28.004464 43.654018 26.658482 45 25.001116 45 C 23.34375 45 21.997768 43.654018 21.997768 41.996652 C 21.997768 40.339286 23.34375 39.003348 25.001116 39.003348 C 26.658482 39.003348 28.004464 40.339286 28.004464 41.996652 Z M 28.004464 41.996652 " transform="matrix(0.388889,0,0,0.388889,0,0)"/>
<path style="fill:none;stroke-width:2;stroke-linecap:butt;stroke-linejoin:miter;stroke:rgb(0%,0%,0%);stroke-opacity:1;stroke-miterlimit:10;" d="M 37.998884 45 C 37.998884 46.657366 36.652902 48.003348 34.995536 48.003348 C 33.33817 48.003348 32.002232 46.657366 32.002232 45 C 32.002232 43.342634 33.33817 41.996652 34.995536 41.996652 C 36.652902 41.996652 37.998884 43.342634 37.998884 45 Z M 37.998884 45 " transform="matrix(0.388889,0,0,0.388889,0,0)"/>
<path style="fill:none;stroke-width:2;stroke-linecap:butt;stroke-linejoin:miter;stroke:rgb(0%,0%,0%);stroke-opacity:1;stroke-miterlimit:10;" d="M 48.003348 43.995536 C 48.003348 45.652902 46.657366 46.998884 45 46.998884 C 43.342634 46.998884 41.996652 45.652902 41.996652 43.995536 C 41.996652 42.33817 43.342634 41.002232 45 41.002232 C 46.657366 41.002232 48.003348 42.33817 48.003348 43.995536 Z M 48.003348 43.995536 " transform="matrix(0.388889,0,0,0.388889,0,0)"/>
</g>
</svg>
