<svg width="52" height="52" viewBox="0 0 52 52" fill="none" xmlns="http://www.w3.org/2000/svg">
<circle cx="26" cy="26" r="24" stroke="black" stroke-width="4"/>
<path d="M36 28C37.1046 28 38 27.1046 38 26C38 24.8954 37.1046 24 36 24L36 28ZM14.5858 24.5858C13.8047 25.3668 13.8047 26.6332 14.5858 27.4142L27.3137 40.1421C28.0948 40.9232 29.3611 40.9232 30.1421 40.1421C30.9232 39.3611 30.9232 38.0948 30.1421 37.3137L18.8284 26L30.1421 14.6863C30.9232 13.9052 30.9232 12.6389 30.1421 11.8579C29.3611 11.0768 28.0948 11.0768 27.3137 11.8579L14.5858 24.5858ZM36 24L16 24L16 28L36 28L36 24Z" fill="black"/>
</svg>
