<?xml version="1.0" encoding="UTF-8"?>
<svg xmlns="http://www.w3.org/2000/svg" xmlns:xlink="http://www.w3.org/1999/xlink" width="28px" height="px" viewBox="0 0 28 28" version="1.1">
<g id="surface1">
<path style="fill:none;stroke-width:16;stroke-linecap:butt;stroke-linejoin:miter;stroke:rgb(0%,0%,0%);stroke-opacity:1;stroke-miterlimit:10;" d="M 296 56 C 296 78.071429 278.071429 96 256 96 C 233.928571 96 216 78.071429 216 56 C 216 33.928571 233.928571 16 256 16 C 278.071429 16 296 33.928571 296 56 Z M 296 56 " transform="matrix(0.0546875,0,0,0.0546875,0,0)"/>
<path style="fill:none;stroke-width:16;stroke-linecap:butt;stroke-linejoin:miter;stroke:rgb(0%,0%,0%);stroke-opacity:1;stroke-miterlimit:10;" d="M 199.285714 295.642857 L 168.928571 467.785714 C 166.571429 480.857143 175.357143 493.357143 188.428571 495.642857 C 194.642857 496.714286 201.071429 495.285714 206.285714 491.642857 C 211.428571 488 214.928571 482.357143 216 476.142857 L 237 356.214286 L 237 356.428571 C 237 356.428571 242.214286 323.928571 254.5 323.928571 L 257.571429 323.928571 C 270.071429 323.928571 275.071429 356.428571 275.071429 356.428571 L 275.071429 356.285714 L 296.071429 476.214286 C 298.428571 489.214286 310.857143 497.857143 323.857143 495.571429 C 336.857143 493.285714 345.5 480.857143 343.214286 467.785714 L 312.785714 295.642857 L 307.928571 265.928571 C 305 247.785714 303.714286 218.285714 308.428571 206.214286 C 312.428571 195.785714 322.5 192 331.571429 192 L 424 192 C 437.285714 192 448 181.285714 448 168 C 448 154.785714 437.285714 144 424 144 L 88 144 C 74.714286 144 64 154.785714 64 168 C 64 181.285714 74.714286 192 88 192 L 180.5 192 C 189.714286 192 199.714286 195.785714 203.714286 206.214286 C 208.428571 218.285714 207.071429 247.785714 204.214286 265.928571 Z M 199.285714 295.642857 " transform="matrix(0.0546875,0,0,0.0546875,0,0)"/>
</g>
</svg>
