<?xml version="1.0" encoding="UTF-8"?>
<svg xmlns="http://www.w3.org/2000/svg" xmlns:xlink="http://www.w3.org/1999/xlink" width="28px" height="px" viewBox="0 0 28 28" version="1.1">
<g id="surface1">
<path style="fill:none;stroke-width:2;stroke-linecap:round;stroke-linejoin:round;stroke:rgb(0%,0%,0%);stroke-opacity:1;stroke-miterlimit:10;" d="M 16.001116 34.995536 L 25.875 34.995536 " transform="matrix(0.388889,0,0,0.388889,0,0)"/>
<path style="fill:none;stroke-width:2;stroke-linecap:round;stroke-linejoin:round;stroke:rgb(0%,0%,0%);stroke-opacity:1;stroke-miterlimit:10;" d="M 25.875 34.995536 C 29.290179 34.995536 30.626116 32.082589 30.626116 28.83817 " transform="matrix(0.388889,0,0,0.388889,0,0)"/>
<path style="fill:none;stroke-width:2;stroke-linecap:round;stroke-linejoin:round;stroke:rgb(0%,0%,0%);stroke-opacity:1;stroke-miterlimit:10;" d="M 16.001116 45.502232 L 19.747768 45.502232 " transform="matrix(0.388889,0,0,0.388889,0,0)"/>
<path style="fill:none;stroke-width:2;stroke-linecap:round;stroke-linejoin:round;stroke:rgb(0%,0%,0%);stroke-opacity:1;stroke-miterlimit:10;" d="M 35.296875 45.502232 L 35.296875 39.435268 " transform="matrix(0.388889,0,0,0.388889,0,0)"/>
<path style="fill:none;stroke-width:2;stroke-linecap:round;stroke-linejoin:round;stroke:rgb(0%,0%,0%);stroke-opacity:1;stroke-miterlimit:10;" d="M 35.296875 39.435268 C 35.296875 37.195312 36.502232 34.191964 40.379464 34.191964 " transform="matrix(0.388889,0,0,0.388889,0,0)"/>
<path style="fill:none;stroke-width:2;stroke-linecap:round;stroke-linejoin:round;stroke:rgb(0%,0%,0%);stroke-opacity:1;stroke-miterlimit:10;" d="M 58.459821 34.543527 L 49.871652 34.543527 " transform="matrix(0.388889,0,0,0.388889,0,0)"/>
<path style="fill:none;stroke-width:2;stroke-linecap:round;stroke-linejoin:round;stroke:rgb(0%,0%,0%);stroke-opacity:1;stroke-miterlimit:10;" d="M 40.379464 45.502232 C 40.379464 45.502232 40.540179 55.998884 32.414062 55.998884 L 16.001116 55.998884 C 8.789062 55.998884 8.337054 45.502232 16.001116 45.502232 C 8.789062 45.502232 8.337054 34.995536 16.001116 34.995536 C 7.834821 27.753348 17.879464 21.435268 22.5 26.316964 C 17.698661 19.6875 27.873884 16.001116 31.379464 21.314732 C 30.967634 16.001116 36.220982 15.03683 41.102679 19.024554 L 40.670759 19.376116 C 43.041295 16.995536 50.845982 18.291295 50.845982 24.689732 L 48.626116 26.316964 C 55.486607 19.446429 62.829241 30.495536 57.123884 34.543527 L 58.459821 34.543527 C 63.210937 34.543527 63.753348 45.502232 57.123884 45.502232 L 29.290179 45.502232 " transform="matrix(0.388889,0,0,0.388889,0,0)"/>
<path style="fill:none;stroke-width:2;stroke-linecap:round;stroke-linejoin:round;stroke:rgb(0%,0%,0%);stroke-opacity:1;stroke-miterlimit:10;" d="M 40.670759 19.376116 C 38.25 21.78683 40.389509 22.550223 36.391741 26.537946 " transform="matrix(0.388889,0,0,0.388889,0,0)"/>
</g>
</svg>
