<?xml version="1.0" encoding="UTF-8"?>
<svg xmlns="http://www.w3.org/2000/svg" xmlns:xlink="http://www.w3.org/1999/xlink" width="px" height="24px" viewBox="0 0 24 24" version="1.1">
<g id="surface1">
<path style=" stroke:none;fill-rule:nonzero;fill:rgb(0%,0%,0%);fill-opacity:1;" d="M 12 0.75 C 5.785156 0.75 0.75 5.785156 0.75 12 C 0.75 18.214844 5.785156 23.25 12 23.25 C 18.214844 23.25 23.25 18.214844 23.25 12 C 23.25 5.785156 18.214844 0.75 12 0.75 Z M 12 22.3125 C 6.3125 22.3125 1.6875 17.6875 1.6875 12 C 1.6875 6.3125 6.3125 1.6875 12 1.6875 C 17.6875 1.6875 22.3125 6.3125 22.3125 12 C 22.3125 17.6875 17.6875 22.3125 12 22.3125 Z M 12 22.3125 "/>
<path style=" stroke:none;fill-rule:nonzero;fill:rgb(0%,0%,0%);fill-opacity:1;" d="M 8.996094 7.449219 C 9.199219 7.273438 8.632812 6.675781 8.464844 6.820312 C 7.253906 7.847656 5.644531 8.277344 4.082031 7.996094 C 3.863281 7.953125 3.675781 8.753906 3.9375 8.804688 C 5.742188 9.128906 7.597656 8.632812 8.996094 7.449219 "/>
<path style=" stroke:none;fill-rule:nonzero;fill:rgb(0%,0%,0%);fill-opacity:1;" d="M 19.917969 7.941406 C 18.355469 8.21875 16.746094 7.789062 15.535156 6.765625 C 15.367188 6.617188 14.800781 7.214844 15.003906 7.390625 C 16.402344 8.574219 18.257812 9.070312 20.0625 8.746094 C 20.328125 8.699219 20.136719 7.898438 19.917969 7.941406 "/>
<path style=" stroke:none;fill-rule:nonzero;fill:rgb(0%,0%,0%);fill-opacity:1;" d="M 17.460938 15.898438 C 17.261719 15.664062 16.886719 15.609375 16.628906 15.78125 L 15.039062 16.847656 C 14.78125 17.019531 14.378906 16.996094 14.144531 16.792969 L 12.425781 15.3125 C 12.191406 15.113281 11.808594 15.113281 11.574219 15.3125 L 9.863281 16.789062 C 9.628906 16.992188 9.226562 17.015625 8.96875 16.84375 L 7.371094 15.777344 C 7.113281 15.605469 6.738281 15.65625 6.539062 15.894531 L 4.863281 17.863281 C 4.664062 18.097656 4.722656 18.167969 4.992188 18.019531 L 6.410156 17.238281 C 6.679688 17.089844 7.082031 17.144531 7.304688 17.359375 L 9.039062 19.054688 C 9.261719 19.269531 9.640625 19.292969 9.886719 19.105469 L 11.5625 17.820312 C 11.808594 17.632812 12.210938 17.632812 12.457031 17.820312 L 14.121094 19.097656 C 14.367188 19.285156 14.75 19.261719 14.972656 19.046875 L 16.695312 17.359375 C 16.917969 17.144531 17.320312 17.089844 17.589844 17.238281 L 19.007812 18.019531 C 19.277344 18.167969 19.335938 18.097656 19.136719 17.863281 Z M 17.460938 15.898438 "/>
<path style=" stroke:none;fill-rule:nonzero;fill:rgb(0%,0%,0%);fill-opacity:1;" d="M 16.21875 11.832031 C 17.234375 11.269531 18.304688 11.097656 19.3125 10.945312 C 19.488281 10.921875 19.585938 10.660156 19.375 10.535156 C 17.238281 9.261719 13.765625 10.28125 13.148438 12.984375 C 13.109375 13.148438 13.265625 13.253906 13.449219 13.238281 C 15.761719 13 17.601562 13.351562 19.390625 14 C 19.554688 14.0625 19.742188 13.820312 19.59375 13.640625 C 18.9375 12.855469 17.726562 12.082031 16.21875 11.832031 "/>
<path style=" stroke:none;fill-rule:nonzero;fill:rgb(0%,0%,0%);fill-opacity:1;" d="M 10.554688 13.238281 C 10.734375 13.253906 10.890625 13.148438 10.851562 12.984375 C 10.234375 10.28125 6.761719 9.261719 4.625 10.535156 C 4.414062 10.660156 4.511719 10.917969 4.6875 10.945312 C 5.695312 11.097656 6.765625 11.269531 7.78125 11.832031 C 6.273438 12.082031 5.0625 12.855469 4.40625 13.640625 C 4.257812 13.820312 4.445312 14.0625 4.609375 14 C 6.398438 13.351562 8.238281 13 10.554688 13.238281 "/>
</g>
</svg>
