<?xml version="1.0" encoding="UTF-8"?>
<svg xmlns="http://www.w3.org/2000/svg" xmlns:xlink="http://www.w3.org/1999/xlink" width="px" height="24px" viewBox="0 0 24 24" version="1.1">
<g id="surface1">
<path style=" stroke:none;fill-rule:nonzero;fill:rgb(0%,0%,0%);fill-opacity:1;" d="M 23.078125 10.050781 C 22.117188 4.589844 17.367188 0.75 12.011719 0.75 C 11.363281 0.75 10.707031 0.804688 10.042969 0.921875 C 3.925781 2 -0.160156 7.835938 0.917969 13.957031 C 1.882812 19.414062 6.628906 23.253906 11.984375 23.253906 C 12.632812 23.253906 13.292969 23.199219 13.953125 23.082031 C 20.070312 22.003906 24.15625 16.167969 23.078125 10.050781 M 20.445312 17.917969 C 18.867188 20.171875 16.5 21.679688 13.789062 22.15625 C 13.191406 22.261719 12.585938 22.316406 11.984375 22.316406 C 6.976562 22.316406 2.710938 18.730469 1.84375 13.792969 C 0.855469 8.191406 4.609375 2.832031 10.207031 1.847656 C 10.804688 1.742188 11.410156 1.6875 12.011719 1.6875 C 17.019531 1.6875 21.285156 5.273438 22.15625 10.210938 C 22.632812 12.925781 22.027344 15.660156 20.445312 17.917969 "/>
<path style=" stroke:none;fill-rule:nonzero;fill:rgb(0%,0%,0%);fill-opacity:1;" d="M 17.769531 9.257812 C 17.769531 10.292969 16.929688 11.132812 15.894531 11.132812 C 14.859375 11.132812 14.019531 10.292969 14.019531 9.257812 C 14.019531 8.21875 14.859375 7.382812 15.894531 7.382812 C 16.929688 7.382812 17.769531 8.21875 17.769531 9.257812 Z M 17.769531 9.257812 "/>
<path style=" stroke:none;fill-rule:nonzero;fill:rgb(0%,0%,0%);fill-opacity:1;" d="M 9.273438 10.753906 C 9.273438 11.789062 8.433594 12.628906 7.398438 12.628906 C 6.363281 12.628906 5.523438 11.789062 5.523438 10.753906 C 5.523438 9.71875 6.363281 8.878906 7.398438 8.878906 C 8.433594 8.878906 9.273438 9.71875 9.273438 10.753906 Z M 9.273438 10.753906 "/>
<path style=" stroke:none;fill-rule:nonzero;fill:rgb(0%,0%,0%);fill-opacity:1;" d="M 16.226562 15.6875 C 14.0625 15.105469 11.707031 15.527344 9.878906 16.816406 C 9.425781 17.144531 10.273438 18.328125 10.722656 18 C 11.929688 17.148438 13.855469 16.5625 15.84375 17.085938 C 16.378906 17.226562 16.796875 15.847656 16.226562 15.6875 "/>
</g>
</svg>
