<?xml version="1.0" encoding="UTF-8"?>
<svg xmlns="http://www.w3.org/2000/svg" xmlns:xlink="http://www.w3.org/1999/xlink" width="px" height="24px" viewBox="0 0 24 24" version="1.1">
<g id="surface1">
<path style=" stroke:none;fill-rule:nonzero;fill:rgb(0%,0%,0%);fill-opacity:1;" d="M 12 0.75 C 5.785156 0.75 0.75 5.785156 0.75 12 C 0.75 18.214844 5.785156 23.25 12 23.25 C 18.214844 23.25 23.25 18.214844 23.25 12 C 23.25 5.785156 18.214844 0.75 12 0.75 Z M 12 22.3125 C 6.3125 22.3125 1.6875 17.6875 1.6875 12 C 1.6875 6.3125 6.3125 1.6875 12 1.6875 C 17.6875 1.6875 22.3125 6.3125 22.3125 12 C 22.3125 12.507812 22.273438 13.007812 22.203125 13.5 C 21.886719 11.375 20.070312 9.460938 20.070312 9.460938 C 20.070312 9.460938 17.882812 11.753906 17.882812 14.101562 C 17.882812 16.484375 20.28125 17.101562 21.523438 15.953125 C 19.96875 19.683594 16.285156 22.3125 12 22.3125 Z M 12 22.3125 "/>
<path style=" stroke:none;fill-rule:nonzero;fill:rgb(0%,0%,0%);fill-opacity:1;" d="M 16.3125 13.125 C 16.3125 14.160156 15.472656 15 14.4375 15 C 13.402344 15 12.5625 14.160156 12.5625 13.125 C 12.5625 12.089844 13.402344 11.25 14.4375 11.25 C 15.472656 11.25 16.3125 12.089844 16.3125 13.125 Z M 16.3125 13.125 "/>
<path style=" stroke:none;fill-rule:nonzero;fill:rgb(0%,0%,0%);fill-opacity:1;" d="M 7.6875 13.125 C 7.6875 14.160156 6.847656 15 5.8125 15 C 4.777344 15 3.9375 14.160156 3.9375 13.125 C 3.9375 12.089844 4.777344 11.25 5.8125 11.25 C 6.847656 11.25 7.6875 12.089844 7.6875 13.125 Z M 7.6875 13.125 "/>
<path style=" stroke:none;fill-rule:nonzero;fill:rgb(0%,0%,0%);fill-opacity:1;" d="M 8.246094 8.09375 C 8.449219 7.917969 7.882812 7.320312 7.714844 7.464844 C 6.503906 8.488281 4.894531 8.921875 3.332031 8.640625 C 3.113281 8.597656 2.925781 9.398438 3.1875 9.449219 C 4.992188 9.773438 6.847656 9.273438 8.246094 8.09375 "/>
<path style=" stroke:none;fill-rule:nonzero;fill:rgb(0%,0%,0%);fill-opacity:1;" d="M 16.917969 8.582031 C 15.355469 8.863281 13.746094 8.433594 12.535156 7.40625 C 12.367188 7.261719 11.800781 7.859375 12.003906 8.035156 C 13.402344 9.21875 15.257812 9.714844 17.0625 9.390625 C 17.328125 9.339844 17.136719 8.539062 16.917969 8.582031 "/>
<path style=" stroke:none;fill-rule:nonzero;fill:rgb(0%,0%,0%);fill-opacity:1;" d="M 14.277344 17.75 C 12.117188 17.167969 9.757812 17.589844 7.929688 18.878906 C 7.476562 19.203125 8.324219 20.390625 8.773438 20.0625 C 9.980469 19.210938 11.90625 18.625 13.894531 19.148438 C 14.429688 19.289062 14.847656 17.910156 14.277344 17.75 "/>
</g>
</svg>
