<?xml version="1.0" encoding="UTF-8"?>
<svg xmlns="http://www.w3.org/2000/svg" xmlns:xlink="http://www.w3.org/1999/xlink" width="px" height="24px" viewBox="0 0 24 24" version="1.1">
<g id="surface1">
<path style=" stroke:none;fill-rule:nonzero;fill:rgb(0%,0%,0%);fill-opacity:1;" d="M 12 0.75 C 5.785156 0.75 0.75 5.785156 0.75 12 C 0.75 18.214844 5.785156 23.25 12 23.25 C 18.214844 23.25 23.25 18.214844 23.25 12 C 23.25 5.785156 18.214844 0.75 12 0.75 Z M 12 22.3125 C 6.3125 22.3125 1.6875 17.6875 1.6875 12 C 1.6875 6.3125 6.3125 1.6875 12 1.6875 C 17.6875 1.6875 22.3125 6.3125 22.3125 12 C 22.3125 17.6875 17.6875 22.3125 12 22.3125 Z M 12 22.3125 "/>
<path style=" stroke:none;fill-rule:nonzero;fill:rgb(0%,0%,0%);fill-opacity:1;" d="M 14.625 16.925781 C 14.625 18.375 13.449219 19.550781 12 19.550781 C 10.550781 19.550781 9.375 18.375 9.375 16.925781 C 9.375 15.476562 10.550781 14.300781 12 14.300781 C 13.449219 14.300781 14.625 15.476562 14.625 16.925781 Z M 14.625 16.925781 "/>
<path style=" stroke:none;fill-rule:nonzero;fill:rgb(0%,0%,0%);fill-opacity:1;" d="M 9.28125 9.390625 C 9.28125 10.324219 8.523438 11.078125 7.59375 11.078125 C 6.660156 11.078125 5.90625 10.324219 5.90625 9.390625 C 5.90625 8.460938 6.660156 7.703125 7.59375 7.703125 C 8.523438 7.703125 9.28125 8.460938 9.28125 9.390625 Z M 9.28125 9.390625 "/>
<path style=" stroke:none;fill-rule:nonzero;fill:rgb(0%,0%,0%);fill-opacity:1;" d="M 17.71875 9.390625 C 17.71875 10.324219 16.964844 11.078125 16.03125 11.078125 C 15.097656 11.078125 14.34375 10.324219 14.34375 9.390625 C 14.34375 8.460938 15.097656 7.703125 16.03125 7.703125 C 16.964844 7.703125 17.71875 8.460938 17.71875 9.390625 Z M 17.71875 9.390625 "/>
</g>
</svg>
