<?xml version="1.0" encoding="UTF-8"?>
<svg xmlns="http://www.w3.org/2000/svg" xmlns:xlink="http://www.w3.org/1999/xlink" width="px" height="24px" viewBox="0 0 24 24" version="1.1">
<g id="surface1">
<path style=" stroke:none;fill-rule:nonzero;fill:rgb(0%,0%,0%);fill-opacity:1;" d="M 12 0.75 C 5.785156 0.75 0.75 5.789062 0.75 12 C 0.75 18.210938 5.785156 23.25 12 23.25 C 18.210938 23.25 23.25 18.210938 23.25 12 C 23.25 5.785156 18.210938 0.75 12 0.75 M 20.304688 18.53125 C 19.902344 18.933594 19.394531 19.144531 18.832031 19.144531 C 17.941406 19.144531 16.96875 18.640625 16.015625 17.691406 C 15.644531 17.316406 15.3125 16.984375 15.160156 16.789062 C 15.761719 16.511719 16.320312 16.152344 16.820312 15.71875 L 19.664062 17.890625 L 17.488281 15.042969 C 17.910156 14.546875 18.261719 13.980469 18.515625 13.351562 C 18.703125 13.480469 19.058594 13.835938 19.464844 14.242188 C 21.046875 15.824219 21.367188 17.46875 20.304688 18.53125 M 19.996094 13.710938 C 19.367188 13.085938 19.03125 12.75 18.742188 12.617188 C 18.757812 12.238281 18.25 12.089844 18.042969 12.382812 C 16.417969 14.671875 14.496094 15.25 12 15.25 C 9.503906 15.25 7.582031 14.671875 5.957031 12.382812 C 5.730469 12.0625 5.136719 12.265625 5.269531 12.726562 C 6.121094 15.730469 9.019531 17.476562 12 17.476562 C 12.835938 17.476562 13.664062 17.335938 14.445312 17.070312 C 14.605469 17.335938 14.929688 17.664062 15.488281 18.21875 C 16.515625 19.25 17.601562 19.816406 18.636719 19.882812 C 16.839844 21.398438 14.527344 22.3125 12 22.3125 C 6.3125 22.3125 1.6875 17.6875 1.6875 12 C 1.6875 6.3125 6.3125 1.6875 12 1.6875 C 17.6875 1.6875 22.3125 6.3125 22.3125 12 C 22.3125 13.417969 22.023438 14.773438 21.5 16.007812 C 21.273438 15.296875 20.800781 14.519531 19.996094 13.710938 "/>
<path style=" stroke:none;fill-rule:nonzero;fill:rgb(0%,0%,0%);fill-opacity:1;" d="M 7.898438 6.445312 C 6.847656 6.445312 5.796875 7.402344 5.101562 9.320312 C 5.03125 9.515625 5.390625 9.863281 5.570312 9.671875 C 6.246094 8.960938 7.054688 8.675781 7.898438 8.675781 C 8.742188 8.675781 9.550781 8.960938 10.226562 9.671875 C 10.40625 9.863281 10.765625 9.511719 10.699219 9.320312 C 10 7.402344 8.949219 6.445312 7.898438 6.445312 "/>
<path style=" stroke:none;fill-rule:nonzero;fill:rgb(0%,0%,0%);fill-opacity:1;" d="M 16.101562 6.445312 C 15.050781 6.445312 14 7.402344 13.304688 9.320312 C 13.234375 9.515625 13.59375 9.863281 13.773438 9.671875 C 14.449219 8.960938 15.257812 8.675781 16.101562 8.675781 C 16.945312 8.675781 17.753906 8.960938 18.429688 9.671875 C 18.609375 9.863281 18.96875 9.511719 18.898438 9.320312 C 18.199219 7.402344 17.152344 6.445312 16.101562 6.445312 "/>
</g>
</svg>
