<?xml version="1.0" encoding="UTF-8"?>
<svg xmlns="http://www.w3.org/2000/svg" xmlns:xlink="http://www.w3.org/1999/xlink" width="px" height="24px" viewBox="0 0 24 24" version="1.1">
<g id="surface1">
<path style=" stroke:none;fill-rule:nonzero;fill:rgb(0%,0%,0%);fill-opacity:1;" d="M 14.222656 7.113281 C 15.128906 5.808594 16.570312 4.976562 18.152344 4.84375 C 18.371094 4.828125 18.351562 4.003906 18.085938 4.023438 C 16.257812 4.179688 14.59375 5.140625 13.546875 6.644531 C 13.394531 6.867188 14.097656 7.296875 14.222656 7.113281 "/>
<path style=" stroke:none;fill-rule:nonzero;fill:rgb(0%,0%,0%);fill-opacity:1;" d="M 5.847656 4.84375 C 7.429688 4.976562 8.871094 5.808594 9.777344 7.113281 C 9.902344 7.296875 10.601562 6.867188 10.453125 6.644531 C 9.40625 5.140625 7.742188 4.179688 5.914062 4.023438 C 5.648438 4.003906 5.625 4.828125 5.847656 4.84375 "/>
<path style=" stroke:none;fill-rule:nonzero;fill:rgb(0%,0%,0%);fill-opacity:1;" d="M 19.808594 7.886719 C 19.886719 7.738281 19.683594 7.671875 19.429688 7.5 C 17.847656 8.746094 15.285156 8.628906 13.84375 7.5 C 13.59375 7.671875 13.390625 7.738281 13.464844 7.886719 C 15.046875 10.871094 18.230469 10.871094 19.808594 7.886719 "/>
<path style=" stroke:none;fill-rule:nonzero;fill:rgb(0%,0%,0%);fill-opacity:1;" d="M 10.53125 7.886719 C 10.609375 7.738281 10.40625 7.671875 10.152344 7.5 C 8.570312 8.746094 6.003906 8.628906 4.570312 7.5 C 4.316406 7.671875 4.113281 7.738281 4.191406 7.886719 C 5.769531 10.871094 8.953125 10.871094 10.53125 7.886719 "/>
<path style=" stroke:none;fill-rule:nonzero;fill:rgb(0%,0%,0%);fill-opacity:1;" d="M 22.289062 16.546875 C 22.902344 15.15625 23.25 13.617188 23.25 12 C 23.25 5.785156 18.210938 0.75 12 0.75 C 5.785156 0.75 0.75 5.789062 0.75 12 C 0.75 13.617188 1.09375 15.15625 1.710938 16.542969 C 1.617188 16.6875 1.535156 16.835938 1.480469 17 C 1.292969 17.535156 1.332031 18.109375 1.589844 18.613281 C 1.855469 19.136719 2.316406 19.527344 2.898438 19.71875 C 2.75 20.351562 2.828125 21.007812 3.125 21.601562 C 3.496094 22.324219 4.144531 22.859375 4.953125 23.109375 C 5.261719 23.203125 5.582031 23.25 5.902344 23.25 C 6.683594 23.25 7.40625 22.96875 7.960938 22.5 C 9.214844 22.980469 10.574219 23.25 12 23.25 C 13.425781 23.25 14.785156 22.980469 16.039062 22.5 C 16.59375 22.96875 17.316406 23.25 18.097656 23.25 C 18.417969 23.25 18.734375 23.203125 19.042969 23.109375 C 19.855469 22.859375 20.503906 22.324219 20.871094 21.601562 C 21.171875 21.007812 21.25 20.351562 21.101562 19.71875 C 21.679688 19.527344 22.140625 19.136719 22.40625 18.613281 C 22.664062 18.109375 22.703125 17.535156 22.519531 17 C 22.460938 16.835938 22.378906 16.6875 22.289062 16.546875 M 1.6875 12 C 1.6875 6.3125 6.3125 1.6875 12 1.6875 C 17.6875 1.6875 22.3125 6.3125 22.3125 12 C 22.3125 13.359375 22.042969 14.660156 21.5625 15.847656 C 21.207031 15.636719 20.789062 15.511719 20.34375 15.511719 C 20.105469 15.511719 19.867188 15.546875 19.640625 15.617188 C 19.121094 15.773438 18.6875 16.09375 18.40625 16.523438 C 17.695312 16.296875 16.996094 15.710938 16.363281 14.988281 C 16.5 14.898438 16.558594 14.675781 16.425781 14.464844 C 16.058594 13.867188 15.519531 13.304688 14.84375 12.867188 C 14.101562 11.652344 13.632812 10.605469 13.621094 10.578125 L 13.0625 9.328125 L 13.082031 10.699219 C 13.082031 10.761719 13.09375 11.335938 13.1875 12.167969 C 12.8125 12.078125 12.414062 12.03125 12 12.03125 C 11.582031 12.03125 11.1875 12.082031 10.8125 12.167969 C 10.90625 11.335938 10.917969 10.761719 10.917969 10.699219 L 10.9375 9.324219 L 10.378906 10.578125 C 10.367188 10.601562 9.898438 11.652344 9.15625 12.867188 C 8.480469 13.304688 7.9375 13.867188 7.574219 14.464844 C 7.441406 14.675781 7.5 14.898438 7.636719 14.988281 C 7.003906 15.710938 6.304688 16.296875 5.59375 16.523438 C 5.308594 16.09375 4.878906 15.773438 4.359375 15.617188 C 4.132812 15.546875 3.894531 15.511719 3.65625 15.511719 C 3.210938 15.511719 2.792969 15.636719 2.4375 15.847656 C 1.957031 14.65625 1.6875 13.359375 1.6875 12 M 8.335938 20.992188 L 8.222656 21.246094 C 7.832031 22.121094 6.921875 22.6875 5.902344 22.6875 C 5.636719 22.6875 5.375 22.648438 5.117188 22.570312 C 4.457031 22.367188 3.925781 21.933594 3.628906 21.34375 C 3.359375 20.816406 3.3125 20.214844 3.503906 19.644531 L 3.566406 19.292969 L 3.300781 19.242188 C 3.238281 19.230469 3.171875 19.214844 3.113281 19.199219 C 2.660156 19.058594 2.296875 18.761719 2.089844 18.359375 C 1.902344 17.992188 1.875 17.574219 2.011719 17.183594 C 2.242188 16.519531 2.902344 16.074219 3.65625 16.074219 C 3.839844 16.074219 4.019531 16.101562 4.195312 16.152344 C 4.644531 16.292969 5.003906 16.585938 5.210938 16.980469 L 5.308594 17.171875 L 5.519531 17.125 C 7.507812 16.6875 9.320312 13.828125 10.246094 12.105469 C 10.070312 13.636719 9.601562 16.070312 8.386719 17.722656 L 7.84375 18.460938 L 8.707031 18.15625 C 9.074219 18.023438 9.484375 18.015625 9.863281 18.132812 C 10.316406 18.269531 10.679688 18.566406 10.882812 18.96875 C 11.070312 19.339844 11.101562 19.757812 10.964844 20.144531 C 10.734375 20.808594 10.074219 21.253906 9.324219 21.253906 C 9.140625 21.253906 8.957031 21.226562 8.777344 21.171875 C 8.714844 21.152344 8.652344 21.132812 8.59375 21.105469 Z M 12 22.3125 C 10.808594 22.3125 9.667969 22.105469 8.605469 21.734375 C 8.609375 21.726562 8.613281 21.71875 8.617188 21.710938 C 8.847656 21.78125 9.085938 21.816406 9.324219 21.816406 C 10.3125 21.816406 11.1875 21.21875 11.496094 20.328125 C 11.683594 19.792969 11.644531 19.222656 11.386719 18.714844 C 11.109375 18.175781 10.628906 17.777344 10.027344 17.59375 C 9.761719 17.511719 9.488281 17.476562 9.214844 17.488281 C 9.898438 16.347656 10.308594 14.992188 10.554688 13.796875 C 11.515625 13.574219 12.488281 13.574219 13.445312 13.796875 C 13.691406 14.992188 14.097656 16.347656 14.78125 17.488281 C 14.511719 17.480469 14.234375 17.511719 13.972656 17.59375 C 13.371094 17.777344 12.886719 18.175781 12.613281 18.714844 C 12.355469 19.222656 12.316406 19.792969 12.503906 20.328125 C 12.8125 21.21875 13.6875 21.816406 14.675781 21.816406 C 14.914062 21.816406 15.152344 21.78125 15.378906 21.710938 C 15.382812 21.71875 15.390625 21.726562 15.394531 21.734375 C 14.328125 22.105469 13.1875 22.3125 12 22.3125 M 21.90625 18.359375 C 21.703125 18.761719 21.339844 19.058594 20.886719 19.199219 C 20.824219 19.214844 20.761719 19.230469 20.699219 19.242188 L 20.433594 19.292969 L 20.472656 19.558594 L 20.496094 19.644531 C 20.6875 20.207031 20.644531 20.808594 20.371094 21.34375 C 20.070312 21.933594 19.542969 22.367188 18.878906 22.570312 C 18.625 22.648438 18.359375 22.6875 18.09375 22.6875 C 17.078125 22.6875 16.167969 22.121094 15.773438 21.246094 L 15.660156 20.992188 L 15.40625 21.105469 C 15.34375 21.132812 15.285156 21.15625 15.21875 21.175781 C 15.042969 21.226562 14.859375 21.253906 14.675781 21.253906 C 13.925781 21.253906 13.265625 20.808594 13.035156 20.144531 C 12.898438 19.757812 12.929688 19.339844 13.117188 18.96875 C 13.320312 18.566406 13.683594 18.269531 14.136719 18.132812 C 14.515625 18.015625 14.925781 18.023438 15.292969 18.15625 L 16.15625 18.460938 L 15.613281 17.722656 C 14.394531 16.074219 13.929688 13.636719 13.753906 12.105469 C 14.679688 13.824219 16.492188 16.6875 18.480469 17.125 L 18.691406 17.171875 L 18.789062 16.980469 C 18.992188 16.585938 19.355469 16.292969 19.804688 16.152344 C 19.980469 16.101562 20.160156 16.074219 20.34375 16.074219 C 21.097656 16.074219 21.757812 16.519531 21.988281 17.183594 C 22.121094 17.574219 22.09375 17.992188 21.90625 18.359375 "/>
</g>
</svg>
