<?xml version="1.0" encoding="UTF-8"?>
<svg xmlns="http://www.w3.org/2000/svg" xmlns:xlink="http://www.w3.org/1999/xlink" width="px" height="24px" viewBox="0 0 24 24" version="1.1">
<g id="surface1">
<path style=" stroke:none;fill-rule:nonzero;fill:rgb(0%,0%,0%);fill-opacity:1;" d="M 19.59375 11.871094 C 18.9375 11.085938 17.726562 10.3125 16.21875 10.0625 C 17.234375 9.5 18.304688 9.328125 19.3125 9.175781 C 19.488281 9.148438 19.585938 8.890625 19.375 8.765625 C 17.238281 7.492188 13.765625 8.511719 13.148438 11.210938 C 13.109375 11.378906 13.265625 11.484375 13.449219 11.46875 C 15.761719 11.230469 17.601562 11.582031 19.390625 12.230469 C 19.554688 12.289062 19.742188 12.050781 19.59375 11.871094 "/>
<path style=" stroke:none;fill-rule:nonzero;fill:rgb(0%,0%,0%);fill-opacity:1;" d="M 4.625 8.765625 C 4.414062 8.890625 4.511719 9.148438 4.6875 9.175781 C 5.695312 9.328125 6.765625 9.5 7.78125 10.0625 C 6.273438 10.3125 5.0625 11.085938 4.40625 11.871094 C 4.257812 12.050781 4.445312 12.289062 4.609375 12.230469 C 6.398438 11.582031 8.238281 11.230469 10.550781 11.46875 C 10.734375 11.484375 10.890625 11.378906 10.851562 11.210938 C 10.234375 8.511719 6.761719 7.492188 4.625 8.765625 "/>
<path style=" stroke:none;fill-rule:nonzero;fill:rgb(0%,0%,0%);fill-opacity:1;" d="M 12 0.75 C 5.785156 0.75 0.75 5.785156 0.75 12 C 0.75 18.214844 5.785156 23.25 12 23.25 C 18.214844 23.25 23.25 18.214844 23.25 12 C 23.25 5.785156 18.214844 0.75 12 0.75 M 12 22.5 C 9.929688 22.5 8.25 20.851562 8.25 17.566406 L 8.25 16.070312 C 8.25 15.871094 8.292969 15.75 8.558594 15.75 L 11.4375 15.75 L 12 20.921875 L 12.5625 15.75 L 15.441406 15.75 C 15.707031 15.75 15.75 15.867188 15.75 16.070312 L 15.75 17.566406 C 15.75 20.851562 14.070312 22.5 12 22.5 M 15.183594 21.804688 C 15.800781 21.09375 16.261719 20.089844 16.429688 18.726562 C 17.703125 17.636719 18.375 16.109375 18.375 14.625 C 18.375 14.441406 18.230469 14.25 17.953125 14.25 C 16.707031 14.25 14.335938 14.25 12 14.25 C 9.664062 14.25 7.292969 14.25 6.046875 14.25 C 5.773438 14.25 5.625 14.441406 5.625 14.625 C 5.625 16.109375 6.296875 17.636719 7.570312 18.726562 C 7.734375 20.089844 8.203125 21.09375 8.820312 21.804688 C 4.6875 20.460938 1.6875 16.578125 1.6875 12 C 1.6875 6.3125 6.3125 1.6875 12 1.6875 C 17.6875 1.6875 22.3125 6.3125 22.3125 12 C 22.3125 16.574219 19.316406 20.457031 15.183594 21.804688 "/>
</g>
</svg>
