<?xml version="1.0" encoding="UTF-8"?>
<svg xmlns="http://www.w3.org/2000/svg" xmlns:xlink="http://www.w3.org/1999/xlink" width="px" height="24px" viewBox="0 0 24 24" version="1.1">
<g id="surface1">
<path style=" stroke:none;fill-rule:nonzero;fill:rgb(0%,0%,0%);fill-opacity:1;" d="M 12 0.75 C 5.785156 0.75 0.75 5.785156 0.75 12 C 0.75 18.214844 5.785156 23.25 12 23.25 C 18.214844 23.25 23.25 18.214844 23.25 12 C 23.25 5.785156 18.214844 0.75 12 0.75 Z M 12 22.3125 C 6.3125 22.3125 1.6875 17.6875 1.6875 12 C 1.6875 6.3125 6.3125 1.6875 12 1.6875 C 17.6875 1.6875 22.3125 6.3125 22.3125 12 C 22.3125 17.6875 17.6875 22.3125 12 22.3125 Z M 12 22.3125 "/>
<path style=" stroke:none;fill-rule:nonzero;fill:rgb(0%,0%,0%);fill-opacity:1;" d="M 17.917969 12.753906 C 12 12.753906 12 12.753906 6.082031 12.753906 C 5.785156 12.753906 5.515625 12.71875 5.363281 12.914062 C 3.898438 14.785156 5.621094 20.25 12 20.25 C 18.378906 20.25 20.101562 14.785156 18.636719 12.914062 C 18.484375 12.71875 18.214844 12.753906 17.917969 12.753906 M 12 19.566406 C 10.90625 19.566406 9.945312 19.359375 9.109375 19 C 9.914062 18.613281 10.875 18.375 12 18.375 C 13.125 18.375 14.085938 18.613281 14.890625 19 C 14.054688 19.359375 13.09375 19.566406 12 19.566406 M 17.628906 15 C 13.71875 15 10.28125 15 6.371094 15 C 5.621094 15 5.621094 13.5 6.394531 13.5 L 17.605469 13.5 C 18.378906 13.5 18.378906 15 17.628906 15 "/>
<path style=" stroke:none;fill-rule:nonzero;fill:rgb(0%,0%,0%);fill-opacity:1;" d="M 9.5625 8.625 C 9.5625 9.660156 8.722656 10.5 7.6875 10.5 C 6.652344 10.5 5.8125 9.660156 5.8125 8.625 C 5.8125 7.589844 6.652344 6.75 7.6875 6.75 C 8.722656 6.75 9.5625 7.589844 9.5625 8.625 Z M 9.5625 8.625 "/>
<path style=" stroke:none;fill-rule:nonzero;fill:rgb(0%,0%,0%);fill-opacity:1;" d="M 18.1875 8.625 C 18.1875 9.660156 17.347656 10.5 16.3125 10.5 C 15.277344 10.5 14.4375 9.660156 14.4375 8.625 C 14.4375 7.589844 15.277344 6.75 16.3125 6.75 C 17.347656 6.75 18.1875 7.589844 18.1875 8.625 Z M 18.1875 8.625 "/>
</g>
</svg>
