<?xml version="1.0" encoding="UTF-8"?>
<svg xmlns="http://www.w3.org/2000/svg" xmlns:xlink="http://www.w3.org/1999/xlink" width="px" height="24px" viewBox="0 0 24 24" version="1.1">
<g id="surface1">
<path style=" stroke:none;fill-rule:nonzero;fill:rgb(0%,0%,0%);fill-opacity:1;" d="M 19.742188 21.980469 C 20.273438 21.113281 20.476562 20.242188 20.496094 19.371094 C 22.210938 17.398438 23.25 14.820312 23.25 12 C 23.25 5.785156 18.214844 0.75 12 0.75 C 5.785156 0.75 0.75 5.785156 0.75 12 C 0.75 14.820312 1.789062 17.394531 3.503906 19.371094 C 3.523438 20.238281 3.726562 21.105469 4.253906 21.972656 C 2.832031 22.066406 1.875 22.25 1.875 22.460938 C 1.875 22.769531 3.96875 23.023438 6.550781 23.023438 C 7.570312 23.023438 8.511719 22.984375 9.28125 22.917969 C 10.152344 23.132812 11.0625 23.25 12 23.25 C 12.445312 23.25 12.882812 23.222656 13.3125 23.171875 C 14.257812 23.222656 15.335938 23.25 16.480469 23.25 C 20.21875 23.25 23.25 22.949219 23.25 22.574219 C 23.25 22.320312 21.832031 22.097656 19.742188 21.980469 M 12 1.6875 C 17.6875 1.6875 22.3125 6.3125 22.3125 12 C 22.3125 14.226562 21.601562 16.292969 20.394531 17.980469 C 20.078125 15.925781 19.160156 13.875 19.503906 11.859375 C 19.613281 11.703125 19.714844 11.535156 19.808594 11.351562 C 19.886719 11.203125 19.683594 11.136719 19.429688 10.964844 C 17.847656 12.210938 15.285156 12.09375 13.847656 10.964844 C 13.59375 11.136719 13.390625 11.203125 13.46875 11.351562 C 14.292969 12.914062 15.558594 13.648438 16.800781 13.578125 C 16.640625 15.964844 18.3125 18.132812 17.777344 20.539062 C 16.128906 21.65625 14.140625 22.3125 12 22.3125 C 9.859375 22.3125 7.871094 21.65625 6.222656 20.539062 C 5.6875 18.132812 7.359375 15.964844 7.199219 13.578125 C 8.441406 13.648438 9.707031 12.914062 10.53125 11.351562 C 10.609375 11.203125 10.40625 11.136719 10.152344 10.964844 C 8.570312 12.210938 6.007812 12.09375 4.570312 10.964844 C 4.320312 11.136719 4.113281 11.203125 4.191406 11.351562 C 4.285156 11.53125 4.386719 11.703125 4.496094 11.859375 C 4.839844 13.875 3.921875 15.925781 3.605469 17.980469 C 2.398438 16.289062 1.6875 14.226562 1.6875 12 C 1.6875 6.3125 6.3125 1.6875 12 1.6875 "/>
<path style=" stroke:none;fill-rule:nonzero;fill:rgb(0%,0%,0%);fill-opacity:1;" d="M 7.222656 17.25 C 6.945312 17.96875 7.34375 19.125 7.34375 19.125 C 7.84375 20.582031 7.773438 21 12 21 C 16.222656 21 16.15625 20.582031 16.65625 19.125 C 16.65625 19.125 17.054688 17.96875 16.777344 17.25 C 16.253906 15.902344 14.984375 15 12 15 C 9.015625 15 7.746094 15.902344 7.222656 17.25 M 8.699219 16.5625 C 8.699219 16.5625 9.453125 15.75 12 15.75 C 14.546875 15.75 15.300781 16.5625 15.300781 16.5625 C 15.363281 16.628906 15.390625 16.765625 15.363281 16.863281 L 15.308594 17.074219 C 15.28125 17.171875 15.191406 17.25 15.109375 17.25 L 8.886719 17.25 C 8.808594 17.25 8.71875 17.171875 8.691406 17.074219 L 8.632812 16.863281 C 8.609375 16.765625 8.636719 16.628906 8.699219 16.5625 "/>
<path style=" stroke:none;fill-rule:nonzero;fill:rgb(0%,0%,0%);fill-opacity:1;" d="M 19.589844 9.234375 C 19.855469 9.207031 19.734375 8.394531 19.515625 8.417969 C 17.933594 8.558594 16.371094 7.988281 15.25 6.863281 C 15.097656 6.703125 14.480469 7.25 14.667969 7.441406 C 15.960938 8.742188 17.765625 9.398438 19.589844 9.234375 "/>
<path style=" stroke:none;fill-rule:nonzero;fill:rgb(0%,0%,0%);fill-opacity:1;" d="M 4.410156 9.234375 C 6.234375 9.398438 8.039062 8.742188 9.332031 7.441406 C 9.519531 7.25 8.902344 6.703125 8.75 6.863281 C 7.628906 7.988281 6.066406 8.558594 4.484375 8.417969 C 4.265625 8.390625 4.140625 9.207031 4.410156 9.234375 "/>
</g>
</svg>
