<?xml version="1.0" encoding="UTF-8"?>
<svg xmlns="http://www.w3.org/2000/svg" xmlns:xlink="http://www.w3.org/1999/xlink" width="px" height="24px" viewBox="0 0 24 24" version="1.1">
<g id="surface1">
<path style=" stroke:none;fill-rule:nonzero;fill:rgb(0%,0%,0%);fill-opacity:1;" d="M 22.492188 7.9375 C 23.203125 6.882812 23.347656 5.851562 23.191406 4.957031 C 23.019531 3.960938 22.429688 3.125 21.519531 2.875 C 20.722656 2.65625 19.984375 2.867188 19.269531 3.414062 C 18.886719 3.09375 18.484375 2.796875 18.0625 2.523438 C 17.613281 1.84375 17.035156 1.324219 16.285156 0.996094 C 15.53125 0.667969 14.792969 0.679688 14.160156 0.960938 C 13.460938 0.824219 12.738281 0.75 12 0.75 C 11.261719 0.75 10.539062 0.824219 9.839844 0.960938 C 9.207031 0.683594 8.46875 0.667969 7.714844 0.996094 C 6.964844 1.324219 6.386719 1.84375 5.9375 2.523438 C 5.515625 2.796875 5.113281 3.09375 4.730469 3.417969 C 4.015625 2.867188 3.273438 2.65625 2.480469 2.875 C 1.570312 3.125 0.980469 3.960938 0.808594 4.957031 C 0.652344 5.851562 0.796875 6.882812 1.511719 7.9375 C 1.019531 9.195312 0.75 10.566406 0.75 12 C 0.75 18.214844 5.789062 23.25 12 23.25 C 18.214844 23.25 23.25 18.214844 23.25 12 C 23.25 10.566406 22.980469 9.195312 22.492188 7.9375 M 12 22.3125 C 6.3125 22.3125 1.6875 17.6875 1.6875 12 C 1.6875 10.867188 1.875 9.777344 2.214844 8.753906 C 3.585938 10.023438 6.628906 11.925781 6.75 12 C 6.851562 11.890625 10.351562 8.121094 11.128906 6.261719 C 11.964844 4.273438 11.652344 2.757812 10.875 1.769531 C 10.871094 1.765625 10.863281 1.757812 10.859375 1.753906 C 11.234375 1.710938 11.613281 1.6875 12 1.6875 C 12.386719 1.6875 12.769531 1.710938 13.144531 1.753906 C 13.136719 1.757812 13.132812 1.765625 13.125 1.769531 C 12.347656 2.757812 12.039062 4.273438 12.871094 6.261719 C 13.652344 8.121094 17.148438 11.890625 17.25 12 C 17.371094 11.925781 20.414062 10.023438 21.785156 8.753906 C 22.125 9.777344 22.3125 10.867188 22.3125 12 C 22.3125 17.6875 17.6875 22.3125 12 22.3125 "/>
<path style=" stroke:none;fill-rule:nonzero;fill:rgb(0%,0%,0%);fill-opacity:1;" d="M 17.691406 13.492188 C 16.394531 13.246094 14.472656 12.992188 12 12.992188 C 9.527344 12.992188 7.605469 13.246094 6.308594 13.492188 C 5.800781 13.589844 5.625 13.96875 5.625 14.269531 C 5.625 16.996094 7.730469 19.742188 12 19.742188 C 16.269531 19.742188 18.375 16.996094 18.375 14.269531 C 18.375 13.96875 18.195312 13.589844 17.691406 13.492188 M 17.242188 14.914062 C 17.21875 15.078125 17.1875 15.28125 17.140625 15.496094 C 17.085938 15.734375 17.042969 15.847656 16.667969 15.800781 C 15.945312 15.714844 8.054688 15.714844 7.332031 15.800781 C 6.957031 15.847656 6.910156 15.734375 6.859375 15.496094 C 6.8125 15.28125 6.78125 15.078125 6.757812 14.914062 C 6.726562 14.636719 6.753906 14.4375 7.242188 14.355469 C 8.0625 14.21875 9.804688 13.976562 12 13.976562 C 14.195312 13.976562 15.933594 14.21875 16.757812 14.355469 C 17.246094 14.4375 17.273438 14.632812 17.242188 14.914062 "/>
</g>
</svg>
