<?xml version="1.0" encoding="UTF-8"?>
<svg xmlns="http://www.w3.org/2000/svg" xmlns:xlink="http://www.w3.org/1999/xlink" width="px" height="24px" viewBox="0 0 24 24" version="1.1">
<g id="surface1">
<path style=" stroke:none;fill-rule:nonzero;fill:rgb(0%,0%,0%);fill-opacity:1;" d="M 12 0.75 C 5.785156 0.75 0.75 5.785156 0.75 12 C 0.75 18.214844 5.785156 23.25 12 23.25 C 18.214844 23.25 23.25 18.214844 23.25 12 C 23.25 5.785156 18.214844 0.75 12 0.75 Z M 12 22.3125 C 6.3125 22.3125 1.6875 17.6875 1.6875 12 C 1.6875 6.3125 6.3125 1.6875 12 1.6875 C 17.6875 1.6875 22.3125 6.3125 22.3125 12 C 22.3125 17.6875 17.6875 22.3125 12 22.3125 Z M 12 22.3125 "/>
<path style=" stroke:none;fill-rule:nonzero;fill:rgb(0%,0%,0%);fill-opacity:1;" d="M 10.226562 10.421875 C 10.40625 10.613281 10.765625 10.261719 10.695312 10.070312 C 10 8.152344 8.949219 7.195312 7.898438 7.195312 C 6.847656 7.195312 5.796875 8.152344 5.101562 10.070312 C 5.03125 10.261719 5.390625 10.613281 5.570312 10.421875 C 6.246094 9.710938 7.054688 9.425781 7.898438 9.425781 C 8.742188 9.425781 9.550781 9.710938 10.226562 10.421875 "/>
<path style=" stroke:none;fill-rule:nonzero;fill:rgb(0%,0%,0%);fill-opacity:1;" d="M 16.101562 7.195312 C 15.050781 7.195312 14 8.15625 13.300781 10.070312 C 13.234375 10.265625 13.59375 10.613281 13.773438 10.421875 C 14.449219 9.710938 15.257812 9.425781 16.101562 9.425781 C 16.945312 9.425781 17.75 9.710938 18.429688 10.421875 C 18.609375 10.613281 18.96875 10.265625 18.898438 10.070312 C 18.199219 8.152344 17.148438 7.195312 16.101562 7.195312 "/>
<path style=" stroke:none;fill-rule:nonzero;fill:rgb(0%,0%,0%);fill-opacity:1;" d="M 17.691406 13.492188 C 16.394531 13.246094 14.472656 12.988281 12 12.988281 C 9.527344 12.988281 7.605469 13.246094 6.308594 13.492188 C 5.800781 13.589844 5.625 13.96875 5.625 14.269531 C 5.625 16.996094 7.730469 19.742188 12 19.742188 C 16.269531 19.742188 18.375 16.996094 18.375 14.269531 C 18.375 13.96875 18.199219 13.589844 17.691406 13.492188 M 17.242188 14.914062 C 17.21875 15.078125 17.1875 15.28125 17.140625 15.496094 C 17.089844 15.738281 17.042969 15.847656 16.667969 15.800781 C 15.945312 15.714844 8.054688 15.714844 7.332031 15.800781 C 6.957031 15.847656 6.914062 15.734375 6.859375 15.496094 C 6.8125 15.28125 6.78125 15.082031 6.757812 14.914062 C 6.726562 14.636719 6.753906 14.4375 7.242188 14.355469 C 8.0625 14.21875 9.804688 13.976562 12 13.976562 C 14.195312 13.976562 15.9375 14.21875 16.757812 14.355469 C 17.242188 14.4375 17.273438 14.636719 17.242188 14.914062 "/>
</g>
</svg>
