<?xml version="1.0" encoding="UTF-8"?>
<svg xmlns="http://www.w3.org/2000/svg" xmlns:xlink="http://www.w3.org/1999/xlink" width="px" height="24px" viewBox="0 0 24 24" version="1.1">
<g id="surface1">
<path style=" stroke:none;fill-rule:nonzero;fill:rgb(0%,0%,0%);fill-opacity:1;" d="M 12 0.75 C 5.785156 0.75 0.75 5.785156 0.75 12 C 0.75 18.214844 5.785156 23.25 12 23.25 C 18.214844 23.25 23.25 18.214844 23.25 12 C 23.25 5.785156 18.214844 0.75 12 0.75 Z M 12 22.3125 C 6.3125 22.3125 1.6875 17.6875 1.6875 12 C 1.6875 6.3125 6.3125 1.6875 12 1.6875 C 17.6875 1.6875 22.3125 6.3125 22.3125 12 C 22.3125 17.6875 17.6875 22.3125 12 22.3125 Z M 12 22.3125 "/>
<path style=" stroke:none;fill-rule:nonzero;fill:rgb(0%,0%,0%);fill-opacity:1;" d="M 16.71875 15.105469 C 13.679688 17.226562 10.304688 17.214844 7.28125 15.105469 C 6.917969 14.851562 6.589844 15.289062 6.835938 15.695312 C 7.757812 17.214844 9.617188 18.566406 12 18.566406 C 14.382812 18.566406 16.242188 17.214844 17.164062 15.695312 C 17.410156 15.289062 17.082031 14.851562 16.71875 15.105469 "/>
<path style=" stroke:none;fill-rule:nonzero;fill:rgb(0%,0%,0%);fill-opacity:1;" d="M 10.226562 10.421875 C 10.40625 10.613281 10.765625 10.261719 10.695312 10.070312 C 10 8.152344 8.949219 7.195312 7.898438 7.195312 C 6.847656 7.195312 5.796875 8.152344 5.101562 10.070312 C 5.03125 10.265625 5.390625 10.613281 5.570312 10.421875 C 6.246094 9.710938 7.054688 9.425781 7.898438 9.425781 C 8.742188 9.425781 9.550781 9.710938 10.226562 10.421875 "/>
<path style=" stroke:none;fill-rule:nonzero;fill:rgb(0%,0%,0%);fill-opacity:1;" d="M 16.101562 7.195312 C 15.050781 7.195312 14 8.152344 13.304688 10.070312 C 13.234375 10.265625 13.59375 10.613281 13.773438 10.421875 C 14.449219 9.710938 15.257812 9.425781 16.101562 9.425781 C 16.945312 9.425781 17.753906 9.710938 18.429688 10.421875 C 18.609375 10.613281 18.96875 10.261719 18.898438 10.070312 C 18.199219 8.152344 17.152344 7.195312 16.101562 7.195312 "/>
</g>
</svg>
