<?xml version="1.0" encoding="UTF-8"?>
<svg xmlns="http://www.w3.org/2000/svg" xmlns:xlink="http://www.w3.org/1999/xlink" width="px" height="24px" viewBox="0 0 24 24" version="1.1">
<g id="surface1">
<path style=" stroke:none;fill-rule:nonzero;fill:rgb(0%,0%,0%);fill-opacity:1;" d="M 19.582031 4.582031 C 20.140625 4.019531 20.421875 3.386719 20.347656 2.699219 C 20.183594 1.128906 17.214844 0.308594 10.699219 0.992188 C 4.589844 1.632812 1.449219 3.09375 1.617188 4.664062 C 1.695312 5.398438 2.152344 5.984375 2.898438 6.429688 C 1.777344 8.136719 1.125 10.179688 1.125 12.375 C 1.125 18.382812 5.996094 23.25 12 23.25 C 18.007812 23.25 22.875 18.382812 22.875 12.375 C 22.875 9.316406 21.613281 6.554688 19.582031 4.582031 M 12 2.4375 C 13.640625 2.4375 15.1875 2.839844 16.550781 3.546875 C 15.53125 4.007812 13.480469 4.476562 11.09375 4.726562 C 8.804688 4.964844 6.785156 4.945312 5.65625 4.734375 C 7.378906 3.300781 9.589844 2.4375 12 2.4375 M 12 22.3125 C 6.519531 22.3125 2.0625 17.855469 2.0625 12.375 C 2.0625 10.324219 2.6875 8.417969 3.753906 6.835938 C 5.554688 7.507812 8.3125 7.660156 11.367188 7.339844 C 14.507812 7.007812 17.238281 6.257812 18.84375 5.179688 C 20.746094 6.992188 21.9375 9.546875 21.9375 12.375 C 21.9375 17.855469 17.480469 22.3125 12 22.3125 "/>
<path style=" stroke:none;fill-rule:nonzero;fill:rgb(0%,0%,0%);fill-opacity:1;" d="M 10.285156 13.246094 C 10.460938 13.429688 10.808594 13.09375 10.742188 12.90625 C 10.066406 11.050781 9.050781 10.125 8.035156 10.125 C 7.019531 10.125 6.003906 11.050781 5.332031 12.90625 C 5.265625 13.09375 5.613281 13.429688 5.785156 13.246094 C 6.441406 12.554688 7.222656 12.28125 8.035156 12.28125 C 8.851562 12.28125 9.632812 12.554688 10.285156 13.246094 "/>
<path style=" stroke:none;fill-rule:nonzero;fill:rgb(0%,0%,0%);fill-opacity:1;" d="M 15.964844 10.125 C 14.949219 10.125 13.933594 11.050781 13.257812 12.90625 C 13.191406 13.09375 13.539062 13.429688 13.714844 13.246094 C 14.367188 12.554688 15.148438 12.28125 15.964844 12.28125 C 16.777344 12.28125 17.558594 12.554688 18.214844 13.246094 C 18.386719 13.429688 18.734375 13.09375 18.667969 12.90625 C 17.992188 11.050781 16.980469 10.125 15.964844 10.125 "/>
<path style=" stroke:none;fill-rule:nonzero;fill:rgb(0%,0%,0%);fill-opacity:1;" d="M 16.5625 15.84375 C 13.621094 17.894531 10.359375 17.878906 7.4375 15.84375 C 7.085938 15.597656 6.769531 16.023438 7.007812 16.414062 C 7.898438 17.882812 9.695312 19.1875 12 19.1875 C 14.304688 19.1875 16.101562 17.882812 16.992188 16.414062 C 17.230469 16.023438 16.914062 15.597656 16.5625 15.84375 "/>
</g>
</svg>
