<?xml version="1.0" encoding="UTF-8"?>
<svg xmlns="http://www.w3.org/2000/svg" xmlns:xlink="http://www.w3.org/1999/xlink" width="px" height="24px" viewBox="0 0 24 24" version="1.1">
<g id="surface1">
<path style=" stroke:none;fill-rule:nonzero;fill:rgb(0%,0%,0%);fill-opacity:1;" d="M 12 0.75 C 5.785156 0.75 0.75 5.785156 0.75 12 C 0.75 18.214844 5.785156 23.25 12 23.25 C 18.214844 23.25 23.25 18.214844 23.25 12 C 23.25 5.785156 18.214844 0.75 12 0.75 Z M 12 22.3125 C 6.3125 22.3125 1.6875 17.6875 1.6875 12 C 1.6875 6.3125 6.3125 1.6875 12 1.6875 C 17.6875 1.6875 22.3125 6.3125 22.3125 12 C 22.3125 17.6875 17.6875 22.3125 12 22.3125 Z M 12 22.3125 "/>
<path style=" stroke:none;fill-rule:nonzero;fill:rgb(0%,0%,0%);fill-opacity:1;" d="M 18.9375 6.199219 C 19.203125 6.148438 19.011719 5.347656 18.792969 5.390625 C 17.230469 5.671875 15.621094 5.238281 14.410156 4.214844 C 14.242188 4.070312 13.675781 4.667969 13.878906 4.84375 C 15.277344 6.027344 17.132812 6.523438 18.9375 6.199219 "/>
<path style=" stroke:none;fill-rule:nonzero;fill:rgb(0%,0%,0%);fill-opacity:1;" d="M 5.0625 6.140625 C 6.867188 6.464844 8.722656 5.96875 10.121094 4.785156 C 10.324219 4.609375 9.757812 4.011719 9.59375 4.15625 C 8.378906 5.183594 6.769531 5.613281 5.207031 5.332031 C 4.992188 5.289062 4.800781 6.089844 5.0625 6.140625 "/>
<path style=" stroke:none;fill-rule:nonzero;fill:rgb(0%,0%,0%);fill-opacity:1;" d="M 12 12 C 8.6875 11.976562 6.019531 14.039062 6 16.605469 C 5.988281 18.027344 6.5 20.15625 8.089844 20.167969 C 9.242188 20.175781 10.519531 18.738281 12 18.75 C 13.460938 18.761719 14.671875 20.242188 15.816406 20.25 C 17.222656 20.257812 17.988281 18.128906 18 16.695312 C 18.023438 14.128906 15.3125 12.023438 12 12 M 12 18 C 10.5 18 9 19.125 9 19.125 C 9 19.125 9.75 17.25 12 17.25 C 14.25 17.25 15 19.125 15 19.125 C 15 19.125 13.5 18 12 18 M 15.527344 14.25 C 14.644531 14.25 12 14.25 12 14.25 C 12 14.25 9.355469 14.25 8.472656 14.25 C 8.210938 14.25 8.195312 14.003906 8.34375 13.890625 C 9.269531 13.183594 10.464844 12.75 12 12.75 C 13.539062 12.75 14.730469 13.183594 15.65625 13.890625 C 15.804688 14.003906 15.789062 14.25 15.527344 14.25 "/>
<path style=" stroke:none;fill-rule:nonzero;fill:rgb(0%,0%,0%);fill-opacity:1;" d="M 19.59375 11.015625 C 18.9375 10.230469 17.726562 9.457031 16.21875 9.207031 C 17.234375 8.644531 18.304688 8.472656 19.3125 8.320312 C 19.488281 8.296875 19.585938 8.035156 19.375 7.910156 C 17.238281 6.636719 13.765625 7.65625 13.148438 10.359375 C 13.109375 10.523438 13.265625 10.628906 13.449219 10.613281 C 15.761719 10.375 17.601562 10.726562 19.390625 11.375 C 19.554688 11.4375 19.742188 11.195312 19.59375 11.015625 "/>
<path style=" stroke:none;fill-rule:nonzero;fill:rgb(0%,0%,0%);fill-opacity:1;" d="M 10.554688 10.613281 C 10.734375 10.628906 10.890625 10.523438 10.851562 10.359375 C 10.234375 7.65625 6.761719 6.636719 4.625 7.910156 C 4.414062 8.035156 4.511719 8.292969 4.6875 8.320312 C 5.695312 8.472656 6.765625 8.644531 7.78125 9.207031 C 6.273438 9.457031 5.0625 10.230469 4.40625 11.015625 C 4.257812 11.195312 4.445312 11.4375 4.609375 11.375 C 6.398438 10.726562 8.238281 10.375 10.554688 10.613281 "/>
</g>
</svg>
