<?xml version="1.0" encoding="UTF-8"?>
<svg id="Layer_1" data-name="Layer 1" xmlns="http://www.w3.org/2000/svg" viewBox="0 0 83.09 83.09">
  <defs>
    <style>
      .cls-1 {
        fill: none;
        stroke: #000;
        stroke-miterlimit: 10;
      }

      .cls-2 {
        fill: #010101;
      }
    </style>
  </defs>
  <path class="cls-2" d="M17.84,19.59c-.94,12.8-1.14,25.65-.57,38.47,.16,3.63,.39,7.26,.67,10.88l.84-.49c-.23-.15-.37-.36-.39-.64-.05-.72-1.17-.72-1.12,0s.36,1.24,.95,1.6c.34,.22,.88-.06,.84-.49-1-12.79-1.24-25.64-.73-38.46,.15-3.63,.36-7.26,.62-10.88,.05-.72-1.07-.72-1.12,0h0Z"/>
  <path class="cls-2" d="M7.92,19.47c8.59-.26,17.17-.52,25.76-.77,8.55-.26,17.1-.51,25.65-.77,4.83-.14,9.66-.29,14.49-.44,.67-.02,.67-1.14,0-1.12-8.59,.26-17.17,.52-25.76,.77-8.55,.26-17.1,.51-25.65,.77-4.83,.14-9.66,.29-14.49,.44-.67,.02-.67,1.14,0,1.12h0Z"/>
  <path class="cls-2" d="M26.69,39.44c-.29,2.27-.45,4.55-.49,6.83-.02,1.12-.02,2.25,.04,3.36,.05,.87,.19,1.8,.8,2.47,1.23,1.36,3.28,.9,4.6-.05,1.56-1.14,2.9-2.69,4.09-4.2,1.37-1.75,2.55-3.64,3.51-5.65l-1.03-.43c-.34,2.31-.49,4.63-.4,6.96,.04,1.13,.12,2.27,.29,3.4,.12,.84,.38,1.72,1.03,2.31,1.37,1.24,3.38,.54,4.7-.39,1.54-1.09,2.86-2.56,3.91-4.12,1.23-1.82,2.11-3.88,2.58-6.02l-1.1-.15c-.36,7.29-1.29,30.97-1.29,30.97-.06,2.59-3.36,4.71-5.95-.29-.37-.71-1.88-.77,.24,2.18,.61,.67,1.56,1.72,3.62,1.68,1.58-.03,2.84-1.33,2.92-2.91,.46-9.22,1.18-23.48,1.59-31.63,.03-.63-.97-.77-1.1-.15-.72,3.28-2.42,6.28-4.89,8.56-.97,.89-2.67,2.34-4.11,1.7-.74-.34-.95-1.21-1.06-1.94-.29-1.95-.25-3.99-.38-5.85-.09-1.34,.23-2.65,.48-3.98,.11-.58-.72-1.09-1.02-.45-1.5,3.14-3.53,5.99-6.03,8.41-.98,.95-2.72,2.54-4.17,1.48-.69-.5-.69-1.51-.72-2.27-.03-.99-.04-1.99-.02-2.99,.04-2.29,.2-4.57,.49-6.83,.09-.72-1.03-.71-1.12,0h0Z"/>
  <path class="cls-2" d="M49.74,31.68c.72,0,.72-1.12,0-1.12s-.72,1.12,0,1.12h0Z"/>
  <path class="cls-2" d="M57.5,42.38c-.21,2.1-.37,4.21-.46,6.32-.07,1.41-.38,3.54,1.3,4.17,1.44,.54,3.12-.43,4.15-1.4,1.17-1.1,1.96-2.54,2.74-3.92,1.18-2.11,2.36-4.22,3.55-6.32l-1.03-.13c.58,2.02,1.14,4.05,1.74,6.07,.52,1.75,1.17,3.53,2.45,4.88,1.08,1.14,2.62,1.95,4.23,1.76,1.46-.17,2.74-1.04,3.26-2.43,.25-.68-.83-.97-1.08-.3-.43,1.15-1.76,1.74-2.93,1.63-1.4-.13-2.6-1.16-3.34-2.29-.91-1.37-1.33-2.98-1.78-4.53-.48-1.69-.97-3.39-1.45-5.08-.13-.46-.79-.56-1.03-.13-1.15,2.04-2.29,4.09-3.44,6.13-.87,1.55-1.75,3.3-3.23,4.36-.61,.43-1.65,.98-2.42,.67-.85-.35-.6-1.75-.58-2.46,.09-2.33,.26-4.65,.49-6.97,.07-.72-1.05-.71-1.12,0h0Z"/>
  <circle class="cls-1" cx="41.55" cy="41.55" r="41.05"/>
</svg>